# xmcd
#
# Track frame offsets: 
#        150
#        15772
#        37990
#        59090
#
# Disc length: 1011 seconds
#
# Revision: 1
# Processed by: cddbd v1.5.2PL0 Copyright (c) Steve Scherf et al.
# Submitted via: ExactAudioCopy v0.99pb5
#
DISCID=2603f104
DTITLE=Skunk Anansie - Hedonism (Just Because You Feel Good)
DYEAR=1995
DGENRE=Rock
TTITLE0=Hedonism (Just Because You Feel Good)
TTITLE1=So Sublime
TTITLE2=Let It Go
TTITLE3=Strong
EXTD=
EXTT0=
EXTT1=
EXTT2=
EXTT3=
PLAYORDER=
